<?xml version="1.0" encoding="UTF-8"?>
<svg width="660px" height="180px" viewBox="0 0 660 180" version="1.1" xmlns="http://www.w3.org/2000/svg" xmlns:xlink="http://www.w3.org/1999/xlink">
    <title>logo_mark+text_blue</title>
    <g id="Page-1" stroke="none" stroke-width="1" fill="none" fill-rule="evenodd">
        <g id="logo_asset" transform="translate(-568.000000, -223.000000)">
            <g id="logo_mark+text_blue" transform="translate(568.000000, 223.000000)">
                <rect id="space" stroke-opacity="0" stroke="#979797" x="0.5" y="0.5" width="659" height="179"></rect>
                <g id="logo_mark+text" transform="translate(16.000000, 16.000000)" fill-rule="nonzero">
                    <path d="M161.202,69.08 C163.974,67.802 165.954,66.398 167.61,64.508 C169.194,62.726 170.472,60.296 171.3,57.56 C171.498,56.912 171.57,56.75 171.75,56.48 L170.598,55.346 C170.184,55.49 169.986,55.526 169.284,55.526 L165.342,55.58 C165,55.58 164.712,55.598 164.478,55.616 C164.658,55.292 164.658,55.292 164.766,55.04 L164.819654,54.9326914 L164.819654,54.9326914 L164.919877,54.7322469 C164.927235,54.7175309 164.933654,54.7046914 164.939457,54.6930864 L164.969432,54.6331358 C164.978667,54.6146667 164.988,54.596 165,54.572 C165.126,54.2822 165.1638,54.19526 165.193662,54.138308 L165.219186,54.092804 C165.22374,54.0851 165.2286,54.077 165.234,54.068 C165.432,53.672 165.432,53.672 165.54,53.51 L163.074,53.024 C163.002,53.672 162.714,54.374 162.156,55.4 C160.842,57.776 159.546,59.216 157.494,60.62 C158.43,61.196 158.7,61.43 159.24,62.168 C160.95,60.854 162.354,59.306 163.452,57.56 L168.87,57.47 C167.88,60.692 166.188,63.158 163.614,65.066 C162.48,65.912 161.472,66.452 159.672,67.19 C160.464,67.874 160.698,68.18 161.202,69.08 Z M180.608,68.648 C180.986,68.504 181.202,68.432 181.688,68.342 C184.604,67.784 186.44,67.082 188.24,65.876 C189.86,64.796 191.012,63.59 192.254,61.682 C191.48,61.034 191.246,60.782 190.544,59.846 C189.644,61.592 188.528,62.834 186.872,63.968 C185.522,64.904 183.83,65.588 181.958,65.948 L182.048,55.67 C182.066,54.788 182.084,54.338 182.156,53.852 L179.6,53.834 C179.674118,54.3231765 179.687197,54.4095017 179.689505,55.1284686 L179.69,55.688 L179.69,55.688 L179.618,65.408 C179.618,66.452 179.582,66.776 179.456,67.262 L180.608,68.648 Z M212.434,55.67 L213.676,54.968 C213.118,53.942 212.614,53.258 211.804,52.43 L210.598,53.06 C211.3,53.834 211.894,54.68 212.434,55.67 Z M210.274,56.804 L211.534,56.138 C210.922,55.022 210.436,54.338 209.644,53.492 L208.384,54.122 C209.176,54.986 209.68,55.706 210.274,56.804 Z M203.92,58.154 L205.072,56.174 C203.776,55.364 201.976,54.5 200.284,53.852 L199.114,55.688 C200.428,56.102 202.462,57.164 203.92,58.154 Z M198.718,68.738 C199.06,68.63 199.204,68.594 199.978,68.432 C206.422,67.172 210.22,64.22 212.452,58.766 C211.624,58.208 211.282,57.92 210.58,57.164 C209.284,60.998 206.584,63.95 203.29,65.102 C201.382,65.84 199.492,66.254 198.088,66.272 L198.718,68.738 Z M202.57,62.69 L203.686,60.656 C202.336,59.774 200.572,58.874 198.898,58.208 L197.692,60.062 C199.348,60.674 201.382,61.772 202.57,62.69 Z M224.37,61.682 L226.368,61.052 C225.918,59.486 225.576,58.694 224.622,56.912 L222.732,57.452 C223.488,58.928 224.028,60.314 224.37,61.682 Z M222.894,69.026 C225.558,67.676 227.052,66.506 228.384,64.688 C229.536,63.122 230.346,61.142 230.868,58.694 C230.976,58.136 231.012,58.046 231.12,57.776 L228.924,57.272 C228.924,57.83 228.834,58.46 228.6,59.342 C227.826,62.222 226.62,64.058 224.514,65.588 C223.452,66.362 222.714,66.758 221.454,67.244 C222.21,67.964 222.426,68.234 222.894,69.026 Z M220.518,62.564 L222.552,61.916 C221.904,59.9 221.544,59.036 220.788,57.65 L218.88,58.208 C219.69,59.792 220.05,60.746 220.518,62.564 Z M243.236,68.81 C243.1874,68.2754 243.16796,67.84286 243.164558,67.079354 L243.164,62.06 C243.164,61.556 243.146,61.34 243.092,60.836 C243.236,60.926 243.29,60.944 243.704,61.142 C246.71,62.528 248.582,63.554 250.076,64.58 L251.336,62.456 C248.456,60.836 245.63,59.522 243.164,58.658 L243.164576,54.736736 C243.16688,54.08816 243.1784,53.852 243.236,53.42 L240.77,53.42 C240.842,53.906 240.878,54.374 240.878,55.256 L240.878,66.794 C240.878,67.748 240.86,68.234 240.77,68.81 L243.236,68.81 Z M258.25,68.756 C260.518,67.316 262.12,65.678 263.11,63.77 C263.92,62.222 264.298,60.872 264.55,58.622 L268.744,58.604 C268.744,60.674 268.564,63.122 268.348,64.364 C268.06,65.93 267.79,66.326 267.016,66.326 C266.422,66.326 265.702,66.2 264.64,65.912 C264.964,66.74 265.018,67.082 265.054,68.216 C265.99,68.36 266.602,68.414 267.286,68.414 C269.446,68.414 270.076,67.676 270.544,64.562 C270.724,63.374 270.922,60.602 270.976,58.568 C270.994,57.938 271.03,57.686 271.174,57.362 L270.148,56.462 C269.698,56.606 269.536,56.624 268.726,56.624 L264.73,56.642 C264.778,56.13 264.783333,55.9451111 264.796568,55.6322222 L264.802,55.508 C264.838,54.572 264.838,54.572 264.874,54.194 C264.874,54.068 264.892,53.96 264.892,53.852 C264.91,53.6 264.928,53.528 264.964,53.294 L262.552,53.24 C262.606,53.564 262.606,53.708 262.606,53.942 L262.606,54.392 C262.606,54.914 262.57,55.958 262.516,56.642 L259.366,56.66 C258.466,56.66 257.98,56.624 257.368,56.516 L257.386,58.73 C257.98,58.658 258.232,58.64 259.33,58.64 L262.318,58.622 C262.3,58.748 262.264,58.928 262.228,59.18 C262.066,60.44 261.796,61.322 261.31,62.312 C260.356,64.238 258.88,65.66 256.63,66.848 C257.386,67.514 257.638,67.802 258.25,68.756 Z M291.984,62.348 L291.984,59.846 C291.275368,59.9426316 290.926986,59.9672133 289.585074,59.9713177 L278.956926,59.9713177 C277.615014,59.9672133 277.266632,59.9426316 276.558,59.846 L276.558,62.348 C276.683217,62.3323478 276.792647,62.3194178 276.898596,62.3087364 L277.056449,62.2943417 C277.373091,62.2686887 277.713805,62.2611437 278.410927,62.2589246 L279.239161,62.2580074 C279.320132,62.258 279.404348,62.258 279.492,62.258 L289.05,62.258 L289.302839,62.2580074 L289.302839,62.2580074 L290.131073,62.2589246 C290.828195,62.2611437 291.168909,62.2686887 291.485551,62.2943417 L291.643404,62.3087364 C291.749353,62.3194178 291.858783,62.3323478 291.984,62.348 Z M309.95,56.534 L311.192,55.832 C310.634,54.806 310.13,54.122 309.32,53.294 L308.114,53.924 C308.816,54.698 309.41,55.544 309.95,56.534 Z M302.21,68.81 C302.160909,68.3354545 302.14157,67.8757851 302.13846,67.0658527 L302.138,62.06 C302.138,61.646 302.12,61.34 302.066,60.836 C302.21,60.926 302.264,60.944 302.678,61.142 C305.234,62.294 307.79,63.68 309.05,64.58 L310.31,62.456 C307.466,60.854 304.226,59.342 302.138,58.658 L302.138,55.31 C302.138,54.248 302.156,53.906 302.21,53.42 L299.744,53.42 C299.816,53.852 299.834,54.212 299.852,55.256 L299.852,66.794 C299.852,67.82 299.816,68.306 299.744,68.81 L302.21,68.81 Z M307.79,57.668 L309.05,57.002 C308.438,55.886 307.952,55.202 307.16,54.356 L305.9,54.986 C306.692,55.85 307.196,56.57 307.79,57.668 Z M320.104,69.494 C320.032,68.828 319.996,68.198 319.996,67.262 L319.996,56.786 C320.266,57.47 320.446,58.028 320.626,58.784 L321.184,58.532 L321.184,60.116 C321.688,60.026 322.12,60.008 323.002,60.008 L330.67,60.008 C331.408,60.008 331.912,60.044 332.452,60.116 L332.452,58.352 C332.0146,58.4168 331.62094,58.43786 330.916726,58.441424 L327.52,58.442 L327.52,57.722 L330.022,57.722 C330.76,57.722 331.12,57.74 331.552,57.794 L331.552,56.192 C331.1632,56.2406 330.89104,56.26004 330.27625,56.263442 L327.52,56.264 L327.52,55.598 L330.31,55.598 C331.174,55.598 331.624,55.616 332.146,55.688 L332.146,53.96 C331.6675,54.0425 331.325125,54.0645 330.508833,54.0675938 L327.52,54.068 C327.52,53.51 327.538,53.276 327.628,52.844 L325.558,52.844 C325.648,53.258 325.666,53.528 325.666,54.068 L323.434,54.068 C322.462,54.068 322.084,54.05 321.562,53.96 L321.562,55.688 C322.048,55.616 322.39,55.598 323.344,55.598 L325.666,55.598 L325.666,56.264 L323.632,56.264 C322.894,56.264 322.57,56.246 322.102,56.192 L322.102,57.794 C322.606,57.74 322.912,57.722 323.614,57.722 L325.666,57.722 L325.666,58.442 L323.002,58.442 C322.3,58.442 321.94,58.424 321.49,58.388 L321.976,58.172 C321.544,56.84 321.508,56.732 321.058,55.832 L319.996,56.246 L319.996,54.752 C319.996,53.906 320.014,53.456 320.104,52.826 L317.998,52.826 C318.088,53.456 318.124,53.96 318.124,54.752 L318.124,67.208 C318.124,68.072 318.088,68.882 317.998,69.494 L320.104,69.494 Z M317.17,61.682 C317.548,60.116 317.71,58.622 317.746,56.66 L316.324,56.336 C316.306,58.388 316.18,59.504 315.73,61.088 L317.17,61.682 Z M324.01,69.458 C323.938,68.918 323.902,68.288 323.902,67.406 L323.902,66.65 L329.41,66.65 L329.41,67.262 C329.41,67.622 329.302,67.694 328.726,67.694 C328.276,67.694 327.7,67.64 326.962,67.532 C327.196,68.18 327.268,68.486 327.376,69.26 C328.258,69.314 328.6,69.332 328.996,69.332 C330.814,69.332 331.3,68.972 331.3,67.604 L331.3,62.528 C331.3,61.646 331.318,61.106 331.372,60.674 C331.0318,60.7226 330.63328,60.74204 329.97961,60.745442 L323.416,60.746 C322.786,60.746 322.408,60.728 321.976,60.692 C322.012,61.196 322.03,61.538 322.03,62.222 L322.03,67.406 C322.03,68.45 322.012,68.864 321.94,69.458 L324.01,69.458 Z M329.41,62.978 L323.902,62.978 L323.902,62.24 L329.41,62.24 L329.41,62.978 Z M329.41,65.174 L323.902,65.174 L323.902,64.436 L329.41,64.436 L329.41,65.174 Z M341.184,69.476 C341.13,68.9 341.094,68.234 341.094,67.64 L341.094,66.326 L342.318,66.326 C342.984,66.326 343.344,66.344 343.812,66.398 L343.812,64.508 C343.41825,64.55525 343.093406,64.5749375 342.560121,64.5791211 L341.094,64.58 L341.094,63.14 L342.498,63.14 C343.2,63.14 343.578,63.158 344.064,63.212 L344.064,61.304 C343.7175,61.367 343.412344,61.3886562 342.907359,61.3930859 L342.462,61.394 C342.768,60.602 342.858,60.26 343.056,59.396 C343.488,59.414 343.722,59.414 344.064,59.468 L344.064,57.56 C343.632,57.624 343.328,57.6453333 342.734815,57.649284 L341.094,57.65 L341.094,56.264 L342.156,56.264 C342.786,56.264 343.182,56.282 343.65,56.336 L343.65,54.464 C343.266,54.512 342.953111,54.5315556 342.382642,54.5353086 L341.094,54.536 L341.094,54.212 C341.094,53.636 341.112,53.258 341.166,52.844 L339.222,52.844 C339.294,53.096 339.33,53.708 339.33,54.212 L339.33,54.536 L338.106,54.536 C337.386,54.536 337.044,54.518 336.612,54.464 L336.612,56.336 C337.098,56.282 337.458,56.264 338.106,56.264 L339.33,56.264 L339.33,57.65 L337.71,57.65 C336.99,57.65 336.612,57.632 336.144,57.56 L336.144,59.468 C336.558,59.414 336.846,59.396 337.44,59.396 C337.692,60.188 337.8,60.674 337.908,61.394 L337.71,61.394 C336.882,61.394 336.594,61.376 336.144,61.304 L336.144,63.212 C336.648,63.158 337.026,63.14 337.71,63.14 L339.312,63.14 L339.312,64.58 L338.016,64.58 C337.332,64.58 336.972,64.562 336.522,64.508 L336.522,66.398 C337.026,66.344 337.332,66.326 338.016,66.326 L339.312,66.326 L339.312,67.64 C339.312,68.342 339.276,68.882 339.204,69.476 L341.184,69.476 Z M346.404,69.476 C346.332,68.864 346.296,68.504 346.278,67.784 C346.692,68.342 346.944,68.72 347.286,69.35 C348.204,68.558 348.798,67.91 349.428,67.028 C350.22,67.964 350.832,68.54 351.876,69.368 C352.182,68.666 352.362,68.324 352.92,67.46 C351.732,66.722 351.138,66.236 350.436,65.372 C351.048,64.166 351.588,62.564 351.966,60.908 C352.056,60.458 352.092,60.35 352.182,60.116 L351.372,59.108 C351.028364,59.1570909 350.610347,59.1764298 349.888048,59.1795402 L346.278,59.18 L346.278,55.238 L350.202,55.238 C350.13,56.57 350.04,56.75 349.482,56.75 C349.086,56.75 348.348,56.66 347.628,56.534 C347.844,57.11 347.916,57.434 348.024,58.226 C348.753,58.2908 349.08834,58.31186 349.502412,58.315424 L349.644,58.316 C351.624,58.316 351.876,57.938 352.092,54.626 C352.11,54.194 352.128,53.978 352.182,53.456 C351.876,53.51 351.318,53.546 350.508,53.546 L346.08,53.546 C345.414,53.546 344.91,53.528 344.388,53.456 C344.442,53.942 344.478,54.644 344.478,55.292 L344.478,67.334 C344.478,68.27 344.46,68.72 344.352,69.476 L346.404,69.476 Z M340.77,61.394 L339.6,61.394 C339.474,60.602 339.402,60.26 339.15,59.396 L341.31,59.396 C341.166,60.152 341.004,60.782 340.77,61.394 Z M346.278,67.532 L346.278,60.89 L346.566,60.89 C347.142,63.212 347.502,64.166 348.276,65.444 C347.7,66.272 347.106,66.884 346.278,67.532 Z M349.284,63.752 C348.78,62.852 348.51,62.132 348.204,60.89 L350.166,60.89 C349.896,62.186 349.662,62.906 349.284,63.752 Z M357.692,68.666 L359.852,68.54 C359.825,68.2835 359.81825,68.20925 359.816562,68.135 L359.816,68.054 L359.816,68.054 C359.816,66.866 360.536,64.634 361.598,62.546 L360.104,61.88 C359.942,62.33 359.924,62.384 359.888,62.438 C359.708,62.87 359.708,62.87 359.546,63.248 C359.456,63.536 359.366,63.734 359.33,63.86 C359.204,64.184 359.204,64.184 359.114,64.382 L359.096,64.382 C359.114,64.184 359.114,64.148 359.114,64.004 L359.114667,63.4893333 C359.116,63.356 359.12,63.212 359.132,62.78 C359.15,59.648 359.834,55.31 360.572,53.744 L358.142,53.492 L358.142,53.564 L358.142,53.564 C358.142,53.744 358.07,54.266 357.944,54.896 C357.548,56.93 357.548,56.93 357.458,57.47 C357.224,59.036 357.116,60.62 357.116,62.24 C357.116,64.13 357.26,65.858 357.602,67.964 C357.674,68.378 357.674,68.486 357.692,68.666 Z M365.342,68.54 C367.088,68.54 368.348,67.91 368.762,66.848 C368.852,66.596 368.906,66.236 368.906,65.84 L368.906,65.588 L368.906,65.588 C369.014,65.66 369.428,65.93 370.04,66.326 C370.544,66.65 371.084,67.118 371.39,67.478 L372.254,65.3 C372.074,65.21 371.984,65.156 371.75,64.994 C370.67,64.22 370.22,63.968 368.924,63.356 C368.912,63.1544 368.9008,62.96608 368.890347,62.7898667 L368.861173,62.2963733 C368.78456,60.9944 368.75804,60.48236 368.74886,60.03968 L368.746287,59.8851467 L368.746287,59.8851467 L368.744833,59.7293333 L368.744833,59.7293333 L368.744,58.892 L368.744,58.892 C369.698,58.784 370.634,58.622 371.246,58.496 C371.57,58.424 371.588,58.424 371.768,58.406 L371.696,56.372 L371.552,56.408 C371.372,56.4755 371.3045,56.5008125 371.25282,56.5190937 L371.156,56.552 L371.156,56.552 C370.454,56.732 369.662,56.876 368.726,56.984 L368.726,56.156 C368.726,54.878 368.762,54.014 368.852,53.51 L366.602,53.564 C366.638,53.762 366.656,54.032 366.656,54.428 C366.656,55.166 366.674,56.066 366.674,57.128 C366.044,57.164 365.648,57.164 365.018,57.164 C363.542,57.164 362.606,57.092 361.76,56.876 L361.724,58.946 C361.778,58.928 361.814,58.928 361.832,58.928 C361.868,58.928 361.922,58.928 362.012,58.946 C362.048,58.946 362.156,58.946 362.318,58.964 C362.408,58.964 362.606,58.982 362.858,58.982 C363.704,59.054 364.424,59.072 365.09,59.072 C365.558,59.072 365.99,59.054 366.71,59.036 C366.782,61.538 366.8,62.42 366.854,62.87 C366.368,62.69 365.918,62.618 365.252,62.618 C363.074,62.618 361.544,63.842 361.544,65.588 C361.544,67.424 362.984,68.54 365.342,68.54 Z M365.198,66.722 C364.19,66.722 363.542,66.272 363.542,65.606 C363.542,64.868 364.262,64.418 365.414,64.418 C365.954,64.418 366.296,64.49 366.89,64.706 L366.89,65.192 L366.89,65.192 C366.89,65.678 366.818,65.948 366.656,66.164 C366.386,66.524 365.864,66.722 365.198,66.722 Z M379.222,68.216 C379.114,67.532 379.078,66.848 379.078,65.876 L379.078,62.87 L382.516,62.87 C384.244,62.87 385.468,62.456 386.35,61.574 C387.142,60.746 387.556,59.63 387.556,58.262 C387.556,56.966 387.178,55.886 386.44,55.166 C385.576,54.302 384.352,53.888 382.606,53.888 L378.844,53.888 C377.89,53.888 377.332,53.87 376.558,53.834 C376.666,54.644 376.702,55.292 376.702,56.156 L376.702,65.894 C376.702,66.866 376.666,67.496 376.558,68.216 L379.222,68.216 Z M382.516,60.8 L379.078,60.8 L379.078,55.958 L382.516,55.958 C383.47,55.958 384.064,56.156 384.478,56.606 C384.874,57.02 385.072,57.614 385.072,58.334 C385.072,59.918 384.172,60.8 382.516,60.8 Z M397.476,68.504 C399.636,68.504 401.364,67.802 402.39,66.542 C402.93,65.84 403.254,65.138 403.596,63.842 L401.022,63.392 C400.878,64.22 400.734,64.598 400.428,65.048 C399.852,65.894 398.772,66.38 397.512,66.38 C394.992,66.38 393.408,64.328 393.408,61.034 C393.408,57.722 394.956,55.724 397.512,55.724 C398.628,55.724 399.528,56.102 400.14,56.84 C400.5,57.254 400.662,57.596 400.914,58.388 L403.416,57.812 C403.2,57.128 403.074,56.804 402.858,56.426 C402.408,55.634 401.76,54.968 400.95,54.464 C399.96,53.87 398.898,53.6 397.494,53.6 C395.694,53.6 394.074,54.212 392.994,55.31 C391.644,56.66 390.888,58.748 390.888,61.124 C390.888,63.428 391.59,65.462 392.85,66.776 C393.948,67.91 395.514,68.504 397.476,68.504 Z M410.366,68.216 C410.267818,67.5941818 410.22914,67.0616198 410.22292,66.1720331 L410.222,56.21 C410.222,55.13 410.258,54.572 410.366,53.888 L407.63,53.888 C407.738,54.608 407.774,55.094 407.774,56.21 L407.774,65.894 C407.774,66.956 407.738,67.532 407.63,68.216 L410.366,68.216 Z M422.898,68.27 C423.636,68.234 424.086,68.216 425.184,68.216 L428.46,68.216 C430.584,68.216 432.024,67.73 433.176,66.65 C434.58,65.318 435.3,63.374 435.3,60.926 C435.3,58.586 434.616,56.714 433.302,55.472 C432.15,54.356 430.692,53.888 428.442,53.888 L425.184,53.888 C424.05,53.888 423.618,53.87 422.898,53.834 C423.006,54.626 423.042,55.166 423.042,56.174 L423.042,65.894 C423.042,66.974 423.006,67.532 422.898,68.27 Z M428.298,66.092 L425.436,66.092 L425.436,56.012 L428.316,56.012 C429.882,56.012 430.818,56.318 431.556,57.092 C432.384,57.956 432.798,59.234 432.798,60.944 C432.798,62.636 432.348,64.022 431.484,64.94 C430.728,65.75 429.774,66.092 428.298,66.092 Z M444.644,68.504 C446.57,68.504 447.992,68.054 448.946,67.136 C449.684,66.398 450.08,65.354 450.08,64.076 C450.08,62.726 449.612,61.736 448.586,60.98 C447.938,60.53 447.074,60.188 445.652,59.882 C443.97368,59.504 443.603542,59.4181184 443.293353,59.304295 L443.20528,59.2707373 C443.175747,59.2591136 443.14568,59.24696 443.114,59.234 C442.286,58.874 441.89,58.352 441.89,57.596 C441.89,56.426 442.952,55.634 444.518,55.634 C445.508,55.634 446.3,55.94 446.768,56.498 C447.074,56.858 447.2,57.164 447.308,57.776 L449.882,57.47 C449.666,56.516 449.45,55.976 449,55.382 C448.118,54.194 446.57,53.564 444.518,53.564 C441.422,53.564 439.406,55.184 439.406,57.686 C439.406,58.892 439.874,59.882 440.792,60.602 C441.44,61.106 442.16,61.394 443.51,61.7 C445.994,62.276 446.102,62.294 446.642,62.582 C447.2,62.888 447.542,63.5 447.542,64.238 C447.542,65.588 446.462,66.398 444.662,66.398 C443.492,66.398 442.556,66.02 442.034,65.336 C441.71,64.922 441.602,64.562 441.53,63.752 L438.938,64.022 C439.046,64.76 439.118,65.102 439.28,65.516 C439.622,66.398 440.144,67.082 440.864,67.568 C441.728,68.144 443.168,68.504 444.644,68.504 Z M459.514,68.504 C461.44,68.504 462.862,68.054 463.816,67.136 C464.554,66.398 464.95,65.354 464.95,64.076 C464.95,62.726 464.482,61.736 463.456,60.98 C462.808,60.53 461.944,60.188 460.522,59.882 C458.84368,59.504 458.473542,59.4181184 458.163353,59.304295 L458.07528,59.2707373 C458.045747,59.2591136 458.01568,59.24696 457.984,59.234 C457.156,58.874 456.76,58.352 456.76,57.596 C456.76,56.426 457.822,55.634 459.388,55.634 C460.378,55.634 461.17,55.94 461.638,56.498 C461.944,56.858 462.07,57.164 462.178,57.776 L464.752,57.47 C464.536,56.516 464.32,55.976 463.87,55.382 C462.988,54.194 461.44,53.564 459.388,53.564 C456.292,53.564 454.276,55.184 454.276,57.686 C454.276,58.892 454.744,59.882 455.662,60.602 C456.31,61.106 457.03,61.394 458.38,61.7 C460.864,62.276 460.972,62.294 461.512,62.582 C462.07,62.888 462.412,63.5 462.412,64.238 C462.412,65.588 461.332,66.398 459.532,66.398 C458.362,66.398 457.426,66.02 456.904,65.336 C456.58,64.922 456.472,64.562 456.4,63.752 L453.808,64.022 C453.916,64.76 453.988,65.102 454.15,65.516 C454.492,66.398 455.014,67.082 455.734,67.568 C456.598,68.144 458.038,68.504 459.514,68.504 Z M470.442,68.558 L472.62,68.432 C472.602,68.198 472.602,68.054 472.602,67.946 C472.602,66.668 473.214,64.58 474.204,62.492 L472.764,61.844 C472.062,63.464 472.026,63.59 471.828,64.22 C471.846,63.77 471.864,63.626 471.864,63.23 C471.882,61.664 471.954,60.602 472.134,59.252 C472.422,56.948 472.836,54.932 473.268,53.87 L470.892,53.618 C470.856,54.104 470.82,54.284 470.622,55.292 C470.1,57.956 469.884,60.008 469.884,62.33 C469.884,64.148 470.01,65.534 470.352,67.712 C470.406,68.126 470.424,68.234 470.442,68.558 Z M478.344,57.848 C479.676,57.848 481.044,57.776 482.196,57.632 C483.06,57.524 483.33,57.488 483.474,57.47 L483.366,55.292 C482.178,55.616 480.468,55.778 478.47,55.778 C476.904,55.778 475.95,55.706 475.14,55.49 L475.104,57.65 C476.7258,57.8183 476.982075,57.843545 477.829427,57.8473318 L478.344,57.848 L478.344,57.848 Z M479.694,67.658 C480.882,67.658 481.98,67.55 483.42,67.316 C483.834,67.244 483.906,67.226 484.158,67.208 L483.978,64.922 C482.844,65.354 481.278,65.606 479.694,65.606 C477.822,65.606 476.832,65.066 476.832,64.04 C476.832,63.266 477.21,62.492 478.11,61.448 L476.346,60.62 C475.23,61.952 474.69,63.158 474.69,64.328 C474.69,64.976 474.888,65.642 475.23,66.092 C476.022,67.154 477.462,67.658 479.694,67.658 Z M497.858,69.602 C497.786,68.954 497.75,68.396 497.75,67.496 L497.75,66.488 L502.754,66.488 C503.744,66.488 504.32,66.524 504.968,66.596 L504.968,64.598 C504.428,64.6634545 503.992132,64.684281 503.187068,64.6875267 L497.75,64.688 L497.75,63.572 L503.096,63.572 C503.96,63.572 504.464,63.59 504.914,63.644 L504.914,61.898 C504.473,61.94525 504.059562,61.9649375 503.468691,61.9691211 L500.72,61.97 L500.72,61.052 L502.592,61.052 C503.366,61.052 503.708,61.07 504.194,61.106 L504.194,59.522 C503.7815,59.555 503.505125,59.572875 502.796427,59.575625 L500.72,59.576 L500.72,58.694 L502.592,58.694 C503.402,58.694 503.744,58.712 504.194,58.748 L504.194,57.164 C503.8805,57.197 503.551875,57.214875 502.806052,57.217625 L500.72,57.218 L500.72,56.318 L503.114,56.318 C503.726,56.318 504.23,56.336 504.68,56.39 L504.68,54.626 C504.176,54.698 503.51,54.734 502.862,54.734 L501.008,54.734 C501.368,54.212 501.422,54.14 501.764,53.564 C501.8,53.492 501.872,53.366 501.962,53.222 L500.108,52.736 C499.874,53.456 499.622,53.942 499.1,54.734 L496.814,54.734 C497.282,54.014 497.282,54.014 497.588,53.492 C497.624,53.438 497.696,53.312 497.768,53.186 L495.77,52.664 C495.032,54.626 493.88,56.174 492.08,57.596 C491.288,57.074 490.766,56.768 489.776,56.282 L488.498,57.74 C489.686,58.316 490.46,58.82 491.468,59.63 L492.53,58.19 C492.854,58.586 492.944,58.748 493.214,59.216 C493.718,58.766 493.916,58.55 494.294,58.028 C494.276,58.424 494.258,59 494.258,59.54 L494.258,61.916 C494.258,62.744 494.24,63.068 494.204,63.626 C494.654,63.59 495.086,63.572 495.68,63.572 L495.68,64.688 L490.64,64.688 C489.758,64.688 489.236,64.652 488.696,64.58 L488.696,66.596 C489.326,66.524 489.92,66.488 490.91,66.488 L495.68,66.488 L495.68,67.514 C495.68,68.378 495.644,68.882 495.572,69.602 L497.858,69.602 Z M492.35,56.282 L493.538,54.68 C492.512,53.834 491.936,53.456 490.64,52.808 L489.38,54.284 C490.64,54.86 491.288,55.292 492.35,56.282 Z M498.902,57.218 L496.13,57.218 L496.13,56.318 L498.902,56.318 L498.902,57.218 Z M498.902,59.576 L496.13,59.576 L496.13,58.694 L498.902,58.694 L498.902,59.576 Z M489.74,64.274 C491.594,63.05 492.422,62.384 493.664,61.124 L492.728,59.486 C491.432,60.746 490.766,61.268 489.47,62.024 C489.11,62.24 488.84,62.384 488.57,62.492 L489.74,64.274 Z M498.902,61.97 L496.13,61.97 L496.13,61.052 L498.902,61.052 L498.902,61.97 Z M510.19,69.404 C511.63,69.404 512.062,68.99 512.062,67.64 L512.062,62.294 C512.26,62.186 512.332,62.15 512.53,62.024 C513.034,62.6 513.358,63.068 513.592,63.572 C514.006,62.888 514.15,62.654 514.384,62.114 C514.582,63.122 514.762,63.734 515.05,64.472 C514.33,65.786 513.556,66.686 512.278,67.73 C512.656,68.09 513.052,68.666 513.394,69.368 C514.564,68.27 515.23,67.46 515.986,66.236 C517.624,68.432 519.874,69.17 524.986,69.152 C525.112,68.342 525.202,67.946 525.508,67.154 C524.806,67.208 524.284,67.226 523.654,67.226 C521.872,67.226 520.18,66.992 519.244,66.632 C518.344,66.29 517.516,65.588 516.85,64.616 C517.786,62.51 518.29,59.936 518.416,56.678 C518.434,56.156 518.434,56.156 518.506,55.526 C518.20675,55.5575 517.948844,55.5752188 517.527285,55.5791562 L516.058,55.58 C516.094,55.22 516.112,55.076 516.148,54.626 C516.184,54.14 516.238,53.618 516.292,53.294 L514.492,53.078 C514.504857,53.2965714 514.508531,53.4049388 514.50958,53.4752595 L514.51,53.546 L514.51,53.546 C514.51,54.788 514.33,56.372 514.042,57.812 C513.772,59.126 513.466,60.062 512.89,61.322 L512.89,60.044 C512.728,60.1288571 512.612286,60.1872653 512.507434,60.2390612 L512.30172,60.3397143 C512.23098,60.3742449 512.154571,60.4117143 512.062,60.458 L512.062,58.01 L512.35,58.01 C512.764,58.01 512.962,58.028 513.268,58.046 L513.268,56.192 C512.998,56.228 512.746,56.246 512.35,56.246 L512.062,56.246 L512.062,54.842 C512.062,53.978 512.08,53.546 512.152,53.006 L510.19,53.006 C510.271,53.5082 510.29368,53.90834 510.297406,54.613202 L510.298,56.246 L509.848,56.246 C509.326,56.246 509.038,56.228 508.624,56.156 L508.624,58.082 C509.038,58.028 509.416,58.01 509.866,58.01 L510.298,58.01 L510.298,61.214 C509.65,61.448 509.092,61.592 508.588,61.682 L508.48,61.7 L508.804,63.698 L508.896736,63.66632 C508.93216,63.65336 508.9624,63.6404 509.038,63.608 C509.128,63.572 509.254,63.518 509.398,63.464 C509.794,63.302 510.1,63.176 510.298,63.104 L510.298,67.226 C510.298,67.55 510.19,67.64 509.776,67.64 C509.452,67.64 509.11,67.604 508.606,67.514 C508.822,68.198 508.894,68.576 508.966,69.368 C509.122,69.38 509.206,69.384 509.335333,69.3853333 L509.578,69.386 L509.578,69.386 C509.758,69.386 509.92,69.404 510.064,69.404 L510.19,69.404 L510.19,69.404 Z M519.19,66.056 C519.874,64.922 520.216,64.004 520.486,62.726 C520.774,61.268 520.882,59.45 520.9,55.598 L521.674,55.598 L521.674,64.436 C521.674,65.498 521.998,65.768 523.276,65.768 C524.302,65.768 524.734,65.624 524.932,65.192 L524.955574,65.138031 L524.955574,65.138031 L524.999101,65.0285254 C525.17775,64.5444067 525.231172,63.8916552 525.328,61.358 C524.752,61.232 524.41,61.088 524.032,60.836 L524.032,61.322 C524.032,62.51 523.996,63.266 523.942,63.752 C523.906,63.968 523.834,64.04 523.618,64.04 C523.456,64.04 523.402,63.986 523.402,63.806 L523.402,55.4 C523.402,54.698 523.42,54.212 523.474,53.798 C523.078,53.852 522.826,53.87 522.268,53.87 L520.414,53.87 C519.928,53.87 519.55,53.852 519.136,53.798 C519.199529,54.2744706 519.221017,54.680872 519.225194,55.7962088 L519.226,56.282 C519.226,61.214 518.866,63.23 517.66,64.85 C518.506,65.39 518.56,65.444 519.19,66.056 Z M515.896,62.546 C515.572,61.52 515.428,60.872 515.248,59.648 C515.446,58.928 515.608,58.226 515.77,57.398 L516.742,57.398 C516.598,59.792 516.364,61.124 515.896,62.546 Z M536.364,68.684 C538.632,68.684 540.414,67.928 541.764,66.398 C542.646,65.408 543.186,64.238 543.906,61.808 C543.024,61.412 542.7,61.214 541.728,60.422 C541.53,61.664 541.296,62.51 540.9,63.446 C540.054,65.426 538.488,66.524 536.544,66.524 C535.41,66.524 534.546,66.182 534.132,65.588 C533.772,65.048 533.664,64.4 533.664,62.69 C533.664,61.412 533.772,57.758 533.844,56.084 C533.916,54.698 533.952,54.176 534.06,53.654 L531.54,53.618 C531.594,54.086 531.612,54.338 531.612,54.842 L531.61158,55.0896968 C531.610531,55.3232245 531.606857,55.6262857 531.594,56.012 C531.495257,60.1427429 531.4567,62.0014596 531.450816,63.0051035 L531.45,63.1836123 C531.45,63.211809 531.45,63.2392571 531.45,63.266 C531.45,65.678 531.972,67.064 533.214,67.892 C533.97,68.396 535.122,68.684 536.364,68.684 Z M551.504,68.702 C552.692,65.516 552.998,64.616 553.52,62.744 C553.988,61.106 554.438,59.198 554.636,58.082 C555.23,58.064 556.67,57.884 557.588,57.704 C557.876,57.656 557.972,57.64 558.046667,57.6293333 L558.120543,57.6194568 C558.133778,57.6177778 558.148,57.616 558.164,57.614 L558.074,55.544 C557.174,55.814 556.328,55.958 554.996,56.084 C555.068,55.67 555.086,55.562 555.176,55.058 C555.392,53.744 555.392,53.744 555.518,53.33 L553.142,53.114 C553.16,53.258 553.16,53.366 553.16,53.438 C553.16,53.942 552.98,55.328 552.818,56.192 C552.522286,56.2048571 552.336776,56.2085306 552.176192,56.2095802 L551.99,56.21 L551.99,56.21 C550.946,56.21 550.226,56.156 549.578,56.048 L549.542,58.136 C549.704,58.118 549.794,58.118 549.884,58.118 C550.028,58.118 550.28,58.118 550.604,58.136 C550.808,58.148 550.956,58.152 551.058667,58.1533333 L552.224,58.154 C552.26,58.154 552.332,58.154 552.458,58.136 C551.864,61.34 550.478,65.534 549.236,67.82 L551.504,68.702 Z M556.832,61.07 C558.614,60.674 559.802,60.548 561.584,60.548 C562.484,60.548 562.988,60.584 563.852,60.674 L563.816,58.532 C563.06,58.52 562.736,58.516 562.46,58.5146667 L562.127264,58.514 C562.09736,58.514 562.0664,58.514 562.034,58.514 C560.09,58.514 559.226,58.604 556.67,59.09 L556.832,61.07 Z M560.288,68.36 C561.35,68.36 562.142,68.288 563.636,68.072 C564.05,68 564.194,67.982 564.518,67.946 L564.356,65.732 C563.312,66.11 561.584,66.398 560.27,66.398 C558.47,66.398 557.57,65.93 557.57,65.012 C557.57,64.382 557.786,63.932 558.506,63.032 L556.724,62.312 C555.734,63.662 555.392,64.472 555.392,65.426 C555.392,66.326 555.896,67.19 556.67,67.64 C557.534,68.126 558.686,68.36 560.288,68.36 Z M578.686,58.442 C580.378,57.596 581.728,56.678 583.024,55.508 C584.068,54.536 584.284,54.338 584.464,54.194 L582.772,52.88 C582.52,53.276 582.034,53.762 581.224,54.446 C580.126,55.364 578.848,56.138 577.552,56.678 C578.038,57.254 578.344,57.722 578.686,58.442 Z M569.866,69.458 C571.09,67.964 571.738,66.704 572.17,65.048 C572.44,64.004 572.566,62.87 572.656,60.944 L574.672,60.944 L574.672,67.28 C574.672,68.27 574.636,68.72 574.564,69.35 L576.724,69.332 C576.634,68.72 576.616,68.252 576.616,67.244 L576.616,60.944 L576.922,60.944 C577.696,60.944 578.074,60.962 578.524,61.034 L578.524,59.018 C578.092,59.09 577.732,59.108 576.94,59.108 L576.616,59.108 L576.616,55.382 L576.742,55.382 C577.588,55.382 577.858,55.4 578.308,55.472 L578.308,53.438 C577.696,53.51 577.246,53.546 576.454,53.546 L570.838,53.546 C570.136,53.546 569.614,53.51 569.002,53.438 L569.002,55.472 C569.402,55.408 569.730889,55.3866667 570.33,55.382716 L570.802,55.382 L570.802,59.108 L570.334,59.108 C569.596,59.108 569.2,59.09 568.732,59 L568.732,61.052 C569.218,60.962 569.632,60.944 570.334,60.944 L570.784,60.944 C570.658,64.274 570.046,66.056 568.336,67.964 C569.038,68.486 569.362,68.81 569.866,69.458 Z M574.672,59.108 L572.692,59.108 L572.692,55.382 L574.672,55.382 L574.672,59.108 Z M578.74,63.662 C579.622,63.248 580.486,62.744 581.368,62.132 C582.232,61.538 583.564,60.404 584.302,59.612 C584.626,59.252 584.806,59.108 585.058,58.892 L583.456,57.524 C583.15,58.01 582.61,58.622 582.016,59.144 C580.702,60.314 579.442,61.088 577.606,61.862 C578.074,62.402 578.344,62.852 578.74,63.662 Z M578.38,69.404 C580.936,68.108 583.006,66.524 584.86,64.454 C585.166,64.112 585.22,64.058 585.598,63.716 L584.032,62.294 C582.772,64.346 580.09,66.434 577.156,67.676 C577.732,68.324 578.056,68.81 578.38,69.404 Z M601.566,68.54 L601.89,66.092 C601.77,66.104 601.658,66.108 601.591333,66.1093333 L601.53,66.11 L601.53,66.11 C600.882,66.11 599.73,65.912 598.848,65.642 C597.336,65.192 596.454,64.112 596.454,62.708 C596.454,60.89 597.804,59.09 600.09,57.902 C601.242,57.29 602.574,56.93 603.654,56.93 C603.834,56.93 603.834,56.93 604.032,56.948 L603.906,54.662 C603.618,54.734 603.528,54.734 602.052,54.806 C597.246,55.04 594.168,55.202 592.854,55.274 C590.649,55.424 590.2815,55.449 590.03275,55.4531667 L589.732441,55.4530508 C589.617656,55.4514688 589.4475,55.44725 589.2,55.436 L589.326,57.794 C589.884,57.668 590.712,57.56 592.314,57.434 C595.806,57.182 596.922,57.074 598.38,56.858 C597.21,57.452 596.562,57.938 595.878,58.676 C594.78,59.864 594.168,61.376 594.168,62.906 C594.168,64.778 595.086,66.308 596.742,67.244 C597.84,67.856 598.974,68.18 600.954,68.432 C601.296,68.486 601.332,68.486 601.566,68.54 Z M604.392,61.07 L605.634,60.368 C605.076,59.342 604.572,58.658 603.762,57.83 L602.556,58.46 C603.258,59.234 603.852,60.08 604.392,61.07 Z M602.232,62.204 L603.492,61.538 C602.88,60.422 602.394,59.738 601.602,58.892 L600.342,59.522 C601.134,60.386 601.638,61.106 602.232,62.204 Z M611.864,69.404 L613.538,67.838 C612.152,66.128 611.144,65.138 609.488,63.878 L607.958,65.3 C609.524,66.542 610.55,67.622 611.864,69.404 Z M159.168,86.532 L159.168,84.372 L170.796,84.372 L170.796,86.532 L172.776,86.532 C172.704,86.118 172.686,85.722 172.686,85.2 L172.686,83.868 C172.686,83.364 172.704,82.95 172.758,82.482 C172.146,82.554 171.57,82.572 170.688,82.572 L165.828,82.572 L165.828,82.248 C165.828,81.708 165.864,81.276 165.918,80.898 L163.722,80.898 C163.794,81.33 163.812,81.726 163.812,82.266 L163.812,82.572 L159.258,82.572 C158.358,82.572 157.8,82.554 157.188,82.482 C157.242,82.95 157.278,83.436 157.278,83.868 L157.278,85.2 C157.278,85.74 157.242,86.118 157.188,86.532 L159.168,86.532 Z M157.962,97.476 C161.688,96.756 163.83,95.928 165.756,94.47 C167.934,95.424 169.266,96.126 171.3,97.422 L172.794,95.766 C170.472,94.506 169.374,93.984 167.268,93.12 C168.312,91.95 168.888,90.942 169.554,89.124 L171.084,89.124 C171.966,89.124 172.506,89.16 173.064,89.232 L173.064,87.198 C172.598769,87.2644615 172.194888,87.2849112 171.314371,87.2876641 L164.244,87.288 C164.712,86.298 164.712,86.298 164.946,85.83 C165.126,85.452 165.126,85.452 165.306,85.074 L163.146,84.75 C162.966,85.434 162.678,86.136 162.066,87.288 L158.97,87.288 C157.944,87.288 157.53,87.27 157.008,87.198 L157.008,89.232 C157.53,89.16 158.088,89.124 158.97,89.124 L161.04,89.124 C160.356,90.222 159.942,90.816 158.88,92.13 C161.706,92.886 162.03,92.994 163.704,93.624 C161.94,94.65 160.032,95.19 156.972,95.55 C157.422,96.234 157.692,96.756 157.962,97.476 Z M165.378,92.382 C164.1,91.914 163.668,91.788 161.886,91.266 C162.552,90.33 162.75,90.006 163.272,89.124 L167.466,89.124 C166.944,90.546 166.404,91.41 165.378,92.382 Z M192.866,96.99 L192.866,94.884 C192.308,94.956 191.534,94.992 190.58,94.992 L185.9,94.992 L185.9,92.562 L188.816,92.562 C189.698,92.562 190.31,92.598 190.796,92.652 L190.796,90.636 C190.328,90.69 189.752,90.726 188.816,90.726 L185.9,90.726 L185.9,88.692 L188.438,88.692 C189.266,88.692 189.824,88.728 190.346,88.782 L190.346,87.468 C191.156,87.936 191.678,88.224 192.488,88.602 C192.776,87.864 192.992,87.468 193.64,86.532 C191.912,85.92 190.724,85.308 189.23,84.246 C187.898,83.292 187.034,82.428 186.026,81.06 L183.74,81.06 C183.344,81.69 183.146,81.942 182.768,82.356 C182.21,83.004 181.382,83.778 180.788,84.246 C179.6,85.164 178.142,85.956 176.432,86.622 C177.08,87.522 177.08,87.522 177.62,88.53 C178.394,88.188 178.718,88.008 179.582,87.504 L179.582,88.782 C180.068,88.728 180.68,88.692 181.544,88.692 L183.884,88.692 L183.884,90.726 L181.238,90.726 C180.338,90.726 179.798,90.708 179.24,90.636 L179.24,92.652 C179.726,92.598 180.338,92.562 181.238,92.562 L183.884,92.562 L183.884,94.992 L179.42,94.992 C178.412,94.992 177.638,94.956 177.116,94.884 L177.116,96.99 C177.71,96.9 178.448,96.864 179.366,96.864 L190.598,96.864 C191.516,96.864 192.272,96.9 192.866,96.99 Z M188.839333,86.8733333 L181.154667,86.8733333 C181,86.872 180.848,86.868 180.608,86.856 C182.606,85.542 183.902,84.318 184.946,82.77 C186.26,84.498 187.394,85.542 189.374,86.856 C189.146,86.868 189.014,86.872 188.839333,86.8733333 Z M198.574,96.558 L200.752,96.432 C200.734,96.198 200.734,96.054 200.734,95.946 C200.734,94.668 201.346,92.58 202.336,90.492 L200.896,89.844 C200.194,91.464 200.158,91.59 199.96,92.22 C199.978,91.77 199.996,91.626 199.996,91.23 C200.014,89.664 200.086,88.602 200.266,87.252 C200.554,84.948 200.968,82.932 201.4,81.87 L199.024,81.618 C198.988,82.104 198.952,82.284 198.754,83.292 C198.232,85.956 198.016,88.008 198.016,90.33 C198.016,92.148 198.142,93.534 198.484,95.712 C198.538,96.126 198.556,96.234 198.574,96.558 Z M206.476,85.848 C207.808,85.848 209.176,85.776 210.328,85.632 C211.192,85.524 211.462,85.488 211.606,85.47 L211.498,83.292 C210.31,83.616 208.6,83.778 206.602,83.778 C205.036,83.778 204.082,83.706 203.272,83.49 L203.236,85.65 C204.8578,85.8183 205.114075,85.843545 205.961427,85.8473317 L206.476,85.848 L206.476,85.848 Z M207.826,95.658 C209.014,95.658 210.112,95.55 211.552,95.316 C211.966,95.244 212.038,95.226 212.29,95.208 L212.11,92.922 C210.976,93.354 209.41,93.606 207.826,93.606 C205.954,93.606 204.964,93.066 204.964,92.04 C204.964,91.266 205.342,90.492 206.242,89.448 L204.478,88.62 C203.362,89.952 202.822,91.158 202.822,92.328 C202.822,92.976 203.02,93.642 203.362,94.092 C204.154,95.154 205.594,95.658 207.826,95.658 Z M224.532,97.512 C224.466545,97.1029091 224.430843,96.604562 224.424893,95.8141037 L224.424,95.316 C224.928,96 225.198,96.486 225.522,97.314 C227.232,96.09 228.078,95.316 229.14,93.894 C230.148,95.28 230.886,95.982 232.704,97.296 C232.938,96.666 233.316,95.982 233.784,95.28 C232.146,94.254 231.318,93.498 230.31,92.112 C231.714,89.664 232.614,86.64 232.884,83.562 C232.938,83.022 232.974,82.662 233.01,82.428 C232.542,82.482 232.038,82.518 231.552,82.518 L226.836,82.518 C226.386,82.518 226.008,82.5 225.684,82.482 L225.684,81.366 C225.162,81.438 224.766,81.456 224.046,81.456 L218.556,81.456 C217.944,81.456 217.44,81.42 216.936,81.366 L216.936,83.31 C217.332,83.274 217.53,83.256 218.142,83.238 L218.142,93.066 C217.476,93.192 217.17,93.228 216.756,93.246 L217.26,95.298 C217.53,95.19 218.016,95.064 218.7,94.92 C219.51,94.758 220.734,94.434 222.534,93.894 L222.534,95.568 C222.534,96.288 222.498,96.936 222.426,97.512 L224.532,97.512 Z M224.424,95.28 L224.424,83.238 L224.766984,83.2389492 C224.911125,83.2405313 224.9955,83.24475 225.108,83.256 L225.108,84.408 C225.396,84.372 225.522,84.354 225.864,84.336 C226.116,86.604 226.296,87.558 226.692,88.89 C227.034,90.024 227.43,90.996 228.024,92.112 C226.908,93.552 226.17,94.218 224.424,95.28 Z M222.534,85.218 L220.032,85.218 L220.032,83.238 L222.534,83.238 L222.534,85.218 Z M229.194,90.222 C228.384,88.458 228.06,87.252 227.7,84.318 L230.886,84.318 C230.472,86.982 230.022,88.584 229.194,90.222 Z M222.534,88.746 L220.032,88.746 L220.032,86.82 L222.534,86.82 L222.534,88.746 Z M220.032,92.706 L220.032,90.384 L222.534,90.384 L222.534,92.13 C221.346,92.454 221.22,92.472 220.032,92.706 Z M244.478,97.494 C246.152,96.612 246.62,96.306 247.574,95.514 C248.078,95.1 248.366,94.83 248.762,94.416 C250.004,95.694 251.066,96.522 252.596,97.422 C252.794,96.828 253.1,96.252 253.622,95.478 C252.146,94.776 251.21,94.128 250.004,92.976 C250.94,91.734 251.696,90.258 252.632,87.81 C252.83,87.288 252.83,87.288 252.902,87.09 L252.128,86.1 C251.904,86.148 251.665778,86.1675556 251.173136,86.1713086 L249.86,86.172 C250.166,85.074 250.346,84.318 250.616,83.04 C250.796,82.14 250.796,82.14 250.976,81.474 C250.544,81.528 250.166,81.546 249.41,81.546 L244.388,81.546 C243.488,81.546 242.84,81.51 242.282,81.438 L242.282,83.4 C242.786,83.328 242.966,83.31 243.92,83.31 C243.884,85.362 243.884,85.362 243.866,85.596 C243.812,87.108 243.614,88.836 243.38,90.024 C242.894,92.454 242.12,94.146 240.788,95.712 L240.788,90.744 C240.8501,90.7197 240.902885,90.699045 240.952309,90.6796657 L241.096448,90.622986 C241.3235,90.5334 241.607,90.42 242.552,90.042 L242.498,88.314 C241.740941,88.5935294 241.473744,88.6921869 241.233146,88.7708952 L241.101763,88.8128158 C241.056992,88.8267747 241.010316,88.8410413 240.958951,88.8565829 L240.788,88.908 L240.788,88.908 L240.788,85.992 L241.508,85.992 C241.922,85.992 242.12,86.01 242.516,86.046 L242.516,84.156 C242.174,84.21 241.94,84.228 241.508,84.228 L240.788,84.228 L240.788,82.716 C240.788,81.906 240.806,81.456 240.896,80.916 L238.79,80.916 C238.88,81.492 238.898,81.888 238.898,82.734 L238.898,84.228 L238.07,84.228 C237.584,84.228 237.224,84.192 236.738,84.12 L236.738,86.064 C237.224,86.01 237.584,85.992 238.052,85.992 L238.898,85.992 L238.898,89.43 C237.476,89.79 237.152,89.844 236.594,89.898 L236.972,91.914 C237.17,91.824 237.26,91.788 237.8,91.644 C238.352,91.5 238.536,91.452 238.677333,91.4093333 L238.759616,91.383648 C238.8008,91.3704 238.844,91.356 238.898,91.338 L238.898,95.082 C238.898,95.46 238.79,95.568 238.34,95.568 C237.872,95.568 237.458,95.532 236.738,95.442 C237.008,96.126 237.098,96.522 237.152,97.314 C237.447714,97.3397143 237.624041,97.3470612 237.812175,97.3491603 L238.052,97.35 L238.052,97.35 C239.87,97.35 240.374,97.17 240.68,96.45 C241.166,96.792 241.238,96.846 241.922,97.494 C243.056,96.108 243.74,94.884 244.262,93.354 C244.82,91.752 245.18,90.06 245.306,88.458 C245.774,90.132 246.44,91.446 247.502,92.904 C246.044,94.38 245.018,95.082 243.146,95.91 C243.704,96.45 244.082,96.9 244.478,97.494 Z M248.69,91.482 C247.862,90.366 247.214,89.16 246.728,87.828 C246.188,86.352 245.972,85.272 245.81,83.31 L248.564,83.31 C248.168,85.38 247.916,86.388 247.394,87.936 C247.7216,87.9234 247.81988,87.91962 248.077802,87.918486 L250.4,87.918 C249.878,89.502 249.482,90.33 248.69,91.482 Z M262.03,95.928 C263.56,95.928 264.604,94.47 265.54,90.96 C264.658,90.312 264.37,90.042 263.74,89.322 C263.542,90.528 263.218,91.608 262.786,92.58 C262.57,93.084 262.318,93.354 262.048,93.354 C261.472,93.354 260.896,92.202 260.59,90.33 C260.392,89.232 260.248,87.072 260.248,85.506 C260.248,84.318 260.302,83.436 260.392,82.77 L257.926,82.77 C257.98,83.166 257.98,83.292 257.998,83.922 C258.07,88.908 258.394,91.518 259.132,93.318 C259.852,95.046 260.824,95.928 262.03,95.928 Z M270.724,94.11 L272.956,93.264 C272.434,89.304 271.174,86.298 268.906,83.58 L267.016,84.48 C268.096,85.812 268.96,87.27 269.572,88.908 C270.202,90.546 270.616,92.418 270.724,94.11 Z M291.768,83.814 L293.01,83.112 C292.452,82.086 291.948,81.402 291.138,80.574 L289.932,81.204 C290.634,81.978 291.228,82.824 291.768,83.814 Z M278.952,96.846 C280.932,92.922 281.742,90.744 282.624,87.054 C283.038,87.018 283.326,87 283.704,87 C285.09,87 285.504,87.486 285.504,89.142 C285.504,90.672 285.324,92.31 285.036,93.246 C284.766,94.128 284.478,94.47 283.956,94.47 C283.326,94.47 282.3,94.182 281.328,93.75 C281.472,94.452 281.508,94.812 281.508,95.28 C281.508,95.46 281.49,95.73 281.472,96.072 C282.678,96.468 283.416,96.612 284.244,96.612 C285.198,96.612 285.738,96.396 286.242,95.802 C287.106,94.812 287.628,92.346 287.628,89.25 C287.628,87.612 287.394,86.748 286.782,86.064 C286.188,85.434 285.306,85.11 284.118,85.11 C283.794,85.11 283.542,85.128 283.002,85.146 C283.056,84.912 283.056,84.912 283.11,84.606 C283.29,83.634 283.416,82.896 283.506,82.374 L283.542,82.14 C283.578,81.96 283.632,81.726 283.686,81.582 L281.346,81.348 L281.346,81.672 L281.346,81.672 C281.346,82.284 281.22,83.31 280.878,85.308 C278.79,85.578 277.854,85.668 277.044,85.686 L277.26,87.81 C277.512,87.738 277.71,87.684 277.998,87.63 L279.636,87.36 C280.212,87.252 280.212,87.252 280.482,87.216 C279.636,90.564 278.25,93.804 276.864,95.694 L278.952,96.846 Z M289.608,84.948 L290.868,84.282 C290.256,83.166 289.77,82.482 288.978,81.636 L287.718,82.266 C288.51,83.13 289.014,83.85 289.608,84.948 Z M291.3,91.95 L293.352,90.924 C292.83,88.854 291.894,86.91 290.652,85.2 L288.834,86.1 C289.824,87.414 290.94,90.06 291.3,91.95 Z M297.908,86.172 C299.6,85.092 300.878,83.976 302.048,82.572 C302.39,82.176 302.39,82.176 302.588,81.96 L300.86,80.754 C300.626,81.204 300.392,81.546 299.996,82.014 C299.114,82.986 298.196,83.706 296.774,84.48 C297.242,85.038 297.548,85.47 297.908,86.172 Z M312.542,83.67 L312.542,81.672 C312.002,81.744 311.39,81.78 310.49,81.78 L305.63,81.78 C304.694,81.78 304.028,81.744 303.524,81.672 L303.524,83.67 C304.118,83.598 304.874,83.562 305.63,83.562 L310.526,83.562 C311.246,83.562 311.912,83.598 312.542,83.67 Z M301.346,97.458 C301.256,96.864 301.22,96.144 301.22,95.19 L301.22,88.098 C301.688,87.522 301.85,87.288 302.264,86.694 C302.516,86.316 302.678,86.1 302.858,85.902 L301.166,84.786 C300.482,86.334 298.628,88.314 296.738,89.538 C297.134,90.186 297.368,90.654 297.638,91.464 C298.268,91.014 298.808,90.492 299.276,89.934 C299.2496,90.8316 299.24256,91.12904 299.240683,91.5219893 L299.24,95.172 C299.24,96.108 299.204,96.9 299.114,97.458 L301.346,97.458 Z M307.718,97.242 C309.896,97.242 310.418,96.864 310.418,95.316 L310.418,88.152 L311.192,88.152 C311.984,88.152 312.74,88.188 313.334,88.26 L313.334,86.244 C312.866,86.316 312.146,86.352 311.138,86.352 L305.018,86.352 C304.154,86.352 303.344,86.316 302.804,86.244 L302.804,88.26 C303.362,88.188 304.19,88.152 305.018,88.152 L308.456,88.152 L308.456,94.938 C308.456,95.334 308.366,95.37 307.646,95.37 C307.088,95.37 306.152,95.298 305.198,95.172 C305.504,95.928 305.612,96.396 305.72,97.188 C306.566,97.224 307.106,97.242 307.718,97.242 Z M322.264,96.954 C322.174,96.162 322.12,94.146 322.12,91.572 L322.138,89.7 C324.118,87.9 325.882,86.982 327.376,86.982 C329.266,86.982 330.454,88.188 330.454,90.114 C330.454,92.31 328.942,93.84 326.782,93.84 C325.702,93.84 324.586,93.606 323.578,93.174 C323.866,94.164 323.92,94.56 323.92,95.514 C324.838,95.784 325.684,95.91 326.602,95.91 C327.826,95.91 328.888,95.676 329.806,95.226 C331.588,94.308 332.668,92.4 332.668,90.132 C332.668,88.674 332.182,87.36 331.282,86.424 C330.382,85.506 329.068,84.948 327.772,84.948 C326.008,84.948 324.55,85.506 322.588,86.928 C322.354,87.09 322.228,87.198 322.156,87.27 L322.12,87.288 C322.138,87.234 322.156,86.838 322.192,86.064 C322.84,85.254 322.966,85.11 323.218,84.894 L322.534,84.156 C322.444,84.21 322.408,84.21 322.282,84.246 L322.282,83.922 L322.282,83.922 C322.318,83.418 322.318,83.418 322.336,83.076 C322.408,81.834 322.408,81.816 322.516,81.348 L320.194,81.33 C320.248,81.69 320.266,81.834 320.266,82.122 L320.266,82.302 L320.266,82.302 C320.266,82.464 320.248,82.716 320.248,83.058 C320.248,83.706 320.23,83.94 320.194,84.408 C319.186,84.48 318.196,84.534 317.872,84.534 C317.71,84.534 317.566,84.516 317.278,84.498 L317.404,86.532 C317.962,86.424 317.962,86.424 320.14,86.262 C320.104,87.738 320.104,87.756 320.068,88.854 C317.926,90.834 317.224,91.446 316.81,91.734 L317.854,93.804 C318.088,93.444 318.592,92.886 319.24,92.256 C319.33,92.169 319.4085,92.0925 319.477417,92.0245833 L319.657333,91.8446667 C319.864,91.634 319.948,91.53 320.032,91.41 L320.068,91.41 C320.041,91.68 320.03425,91.858875 320.032562,92.1440625 L320.032,94.074 C320.032,95.892 320.014,96.414 319.924,96.954 L322.264,96.954 Z M342.066,96.972 C341.994,96.306 341.994,96.252 341.976,94.002 C341.964667,92.744 341.960469,92.2780741 341.958914,92.0695656 L341.958395,91.520642 C341.959778,91.1168889 341.966,90.672 341.994,90.042 C342.678,89.214 343.956,88.08 345.27,87.108 C346.152,86.478 346.926,86.136 347.502,86.136 C347.988,86.136 348.24,86.37 348.24,86.802 C348.24,87.216 348.132,87.918 347.862,89.07 C347.196,92.058 347.124,92.544 347.124,93.588 C347.124,94.686 347.412,95.352 348.06,95.856 C348.456,96.144 349.014,96.324 349.608,96.324 C350.598,96.324 351.48,95.91 352.272,95.028 C352.74,94.524 352.992,94.182 353.532,93.246 C352.938,92.418 352.722,92.04 352.326,91.086 C352.11,91.734 351.714,92.508 351.282,93.138 C350.904,93.696 350.418,94.056 350.022,94.056 C349.554,94.056 349.284,93.732 349.284,93.156 C349.284,92.58 349.428,91.824 350.04,89.106 C350.364,87.72 350.49,86.946 350.49,86.352 C350.49,84.912 349.482,83.958 347.97,83.958 C346.872,83.958 345.738,84.462 344.172,85.65 C342.876,86.622 342.498,86.946 341.976,87.522 L341.958,87.522 L341.966917,87.423 L341.966917,87.423 L341.98275,87.279 C341.9895,87.225 341.994,87.198 341.994,87.198 L342.03,86.136 C342.138,85.992 342.174,85.956 342.246,85.848 C342.408,85.614 342.408,85.614 342.498,85.524 C342.768,85.2 342.84,85.128 343.02,84.984 L342.354,84.228 C342.228,84.264 342.156,84.3 342.138,84.3 C342.174,83.202 342.192,83.058 342.21,82.698 C342.246,82.338 342.264,82.104 342.264,82.014 C342.282,81.6 342.282,81.564 342.336,81.348 L340.05,81.312 C340.104,81.726 340.104,81.852 340.104,82.32 C340.104,82.734 340.086,83.292 340.086,83.796 C340.077,84.003 340.0725,84.1065 340.068,84.192 L340.060688,84.3174375 C340.057875,84.361875 340.0545,84.4125 340.05,84.48 C339.204,84.534 338.214,84.588 337.872,84.588 C337.62,84.588 337.458,84.588 337.134,84.552 L337.242,86.586 C337.728,86.496 338.088,86.46 339.996,86.334 C339.996,86.82 339.978,86.856 339.978,87.27 C339.942,87.972 339.942,88.17 339.924,89.034 C339.740786,89.2365 339.655722,89.3305179 339.356092,89.6315374 L339.148065,89.8395131 C338.882755,90.1038061 338.494286,90.4881429 337.89,91.086 C337.422,91.554 337.134,91.824 336.72,92.112 L337.764,94.254 C337.944,93.984 338.196,93.678 338.592,93.228 C339.51,92.202 339.708,91.968 339.87,91.716 L339.906,91.698 C339.8805,92.04225 339.873063,92.1426563 339.870893,92.8564349 L339.87,94.11 L339.87,94.11 C339.85704,95.63928 339.853411,96.0674784 339.812084,96.462831 L339.796848,96.594864 C339.78288,96.70632 339.7656,96.8244 339.744,96.972 L342.066,96.972 Z M362.678,96.684 C363.992,96.684 364.964,96.432 365.648,95.91 C366.332,95.388 366.656,94.614 366.656,93.48 L366.656,93.282 L366.656,93.282 C367.088,93.462 367.232,93.516 367.628,93.732 C368.924,94.398 370.166,95.316 370.958,96.198 L372.182,94.092 C371.93,93.948 371.84,93.876 371.534,93.678 C369.59,92.31 368.186,91.608 366.602,91.14 C366.584,90.708 366.584,90.708 366.53,88.962 C367.232,88.926 367.502,88.908 367.754,88.89 C369.104,88.764 369.914,88.674 370.184,88.638 C370.598,88.584 371.048,88.53 371.354,88.512 L371.3,86.532 C370.49,86.748 370.202,86.784 369.068,86.928 C368.022105,87.0416842 367.636776,87.0835679 367.268073,87.112603 L367.082127,87.1263228 C366.923357,87.1373186 366.748842,87.1477895 366.512,87.162 C366.494,86.046 366.494,85.83 366.476,85.38 C368.06,85.29 368.762,85.236 370.346,85.02 C371.372,84.876 371.372,84.876 371.768,84.858 L371.678,82.86 C370.508,83.202 368.942,83.4 366.494,83.544 C366.512,82.068 366.53,81.834 366.62,81.348 L364.334,81.348 C364.340261,81.3871304 364.345977,81.4229943 364.351209,81.4570474 L364.365506,81.55523 C364.406544,81.8581588 364.40913,82.1290435 364.424,83.616 C363.974,83.634 363.362,83.652 363.074,83.652 C361.004,83.652 359.15,83.508 358.232,83.274 L358.214,85.272 L358.502,85.272 L358.502,85.272 C358.556,85.272 358.7,85.272 358.898,85.29 C360.104,85.38 362.426,85.47 363.308,85.47 L363.594,85.4693333 C363.802,85.468 364.058,85.464 364.442,85.452 C364.453571,86.1115714 364.457704,86.600051 364.45918,86.9078746 L364.459993,87.2104111 C364.46,87.2265612 364.46,87.2404286 364.46,87.252 C363.956,87.27 363.344,87.288 362.984,87.288 C361.274,87.288 359.564,87.162 358.79,86.982 L358.754,88.926 C359.024,88.926 359.204,88.926 359.438,88.944 C360.817077,89.0436923 361.490639,89.0666982 362.449711,89.0696477 L362.696,89.07 C363.074,89.07 363.632,89.052 364.496,89.034 C364.514,89.754 364.514,89.754 364.532,90.006 L364.532,90.402 L364.532,90.402 C364.55,90.618 364.55,90.618 364.55,90.834 C364.082,90.78 363.776,90.762 363.344,90.762 C360.32,90.762 358.538,91.914 358.538,93.876 C358.538,95.658 360.05,96.684 362.678,96.684 Z M362.804,94.866 C361.526,94.866 360.752,94.452 360.752,93.786 C360.752,93.012 361.634,92.544 363.092,92.544 C363.632,92.544 363.992,92.58 364.586,92.706 L364.586,93.138 L364.586,93.138 C364.586,93.678 364.514,94.056 364.37,94.29 C364.118,94.65 363.56,94.866 362.804,94.866 Z M382.246,97.278 C383.92,96.702 384.748,96.324 385.504,95.802 C387.25,94.596 388.186,92.904 388.186,90.942 C388.186,89.97 388.006,89.232 387.61,88.404 C387.61,88.188 387.592,88.044 387.592,87.972 L387.61,86.424 L387.61,85.254 C388.613765,85.2285882 389.070429,85.2211142 389.404167,85.2189159 L389.71264,85.2180073 C389.73755,85.218 389.762588,85.218 389.788,85.218 C391.282,85.218 392.146,85.254 392.812,85.308 L392.794,83.238 C392.128,83.31 390.724,83.346 387.592,83.364 C387.6046,82.2804 387.60838,81.93768 387.63421,81.638178 L387.64672,81.510432 C387.65608,81.42432 387.6676,81.3336 387.682,81.222 L385.414,81.24 C385.504,81.708 385.504,81.708 385.522,83.418 C384.586,83.454 384.586,83.454 383.992,83.472 C382.516,83.508 382.336,83.508 381.166,83.544 C379.36,83.614 378.784444,83.6295556 378.406099,83.6330123 L378.106,83.634 C377.782,83.634 377.62,83.634 377.224,83.598 L377.296,85.74 C377.6362,85.6896 377.73826,85.67448 378.701152,85.60203 L379.000637,85.57969 C379.37958,85.55162 379.8658,85.5162 380.5,85.47 C381.292,85.416 382.984,85.362 385.558,85.29 L385.55882,85.9424016 C385.560296,86.3720204 385.564429,86.7968571 385.576,86.82 C385.576,86.946 385.576,86.946 385.594,87.036 C385.18,86.694 384.496,86.496 383.722,86.496 C381.634,86.496 380.14,87.864 380.14,89.772 C380.14,90.798 380.536,91.59 381.382,92.202 C381.994,92.652 382.642,92.85 383.47,92.85 C384.658,92.85 385.594,92.4 386.116,91.572 C385.972,92.58 385.252,93.498 384.028,94.2 C383.182,94.704 382.444,94.956 380.968,95.244 C381.562,95.892 381.742,96.162 382.246,97.278 Z M383.776,91.014 C382.876,91.014 382.246,90.42 382.246,89.592 C382.246,88.8 383.002,88.152 383.92,88.152 C384.91,88.152 385.54,88.638 385.54,89.394 C385.54,90.33 384.802,91.014 383.776,91.014 Z" id="PCIDSS" fill="#222222"></path>
                    <g id="mark_all">
                        <g id="mark" transform="translate(10.000000, 0.000000)">
                            <rect id="Rectangle" fill="#198FCC" x="0" y="0" width="112" height="112" rx="56"></rect>
                            <path d="M25.449375,34.015625 L25.449375,77.765625 C25.449375,91.23625 40.035625,99.640625 51.699375,92.920625 L89.586875,71.045625 C101.255,64.3125 101.255,47.473125 89.586875,40.735625 L51.699375,18.860625 C40.035625,12.123125 25.449375,20.5625 25.449375,34.015625 Z" id="Path" fill="#FFFFFF" opacity="0.8"></path>
                            <path d="M86.550625,34.23875 L86.550625,77.98875 C86.550625,91.46375 71.964375,99.86375 60.300625,93.148125 L22.413125,71.273125 C10.745,64.535625 10.745,47.69625 22.413125,40.963125 L60.300625,19.088125 C71.964375,12.34625 86.550625,20.768125 86.550625,34.23875 Z" id="Path" fill="#FFFFFF" opacity="0.8"></path>
                            <circle id="Oval" fill="#198FCC" cx="56.153125" cy="52.31625" r="6.024375"></circle>
                            <polygon id="Path" fill="#198FCC" points="56.14875 54.726875 50.93375 63.765625 61.368125 63.765625"></polygon>
                        </g>
                        <path d="M8.5947822,143 C12.0166572,143 13.7275947,141.535156 13.7275947,138.605469 C13.7275947,136.332031 12.5479072,135.03125 10.1885322,134.703125 L10.1885322,134.703125 L9.8838447,134.65625 L10.1416572,134.574219 C11.9541572,133.988281 12.8604072,132.761719 12.8604072,130.894531 C12.8604072,128.300781 11.1416572,127.003906 7.7041572,127.003906 L7.7041572,127.003906 L2.8291572,127.003906 L2.8291572,143 L8.5947822,143 Z M7.4932197,133.835938 L4.9385322,133.824219 L4.9385322,128.984375 L7.24712595,128.984375 C9.62212595,128.984375 10.8096259,129.785156 10.8096259,131.386719 C10.8096259,133.019531 9.7041572,133.835938 7.4932197,133.835938 L7.4932197,133.835938 Z M7.9854072,141.019531 L4.9385322,141.007812 L4.9385322,135.652344 L7.43462595,135.664062 C10.1143134,135.664062 11.4541572,136.570312 11.4541572,138.382812 C11.4541572,140.140625 10.2979072,141.019531 7.9854072,141.019531 L7.9854072,141.019531 Z M26.9294176,143 L26.9294176,137.585938 C26.9294176,137.1875 26.9723864,136.902344 27.0583239,136.730469 L27.0583239,136.730469 L27.2926989,136.320312 L32.6012926,127.003906 L30.1286364,127.003906 L25.8981676,134.9375 L21.6794176,127.003906 L19.1481676,127.003906 L24.3981676,136.226562 C24.6794176,136.71875 24.8200426,137.152344 24.8200426,137.527344 L24.8200426,137.527344 L24.8200426,143 L26.9294176,143 Z M47.3625189,143 L47.3625189,136.976562 L49.6945502,136.988281 C53.7648627,136.988281 55.8000189,135.316406 55.8000189,131.972656 C55.8000189,130.230469 55.2726752,128.966797 54.2179877,128.181641 C53.1633002,127.396484 51.4679877,127.003906 49.1320502,127.003906 L49.1320502,127.003906 L45.2531439,127.003906 L45.2531439,143 L47.3625189,143 Z M47.3625189,135.007812 L47.3625189,128.984375 L49.6593939,128.984375 C52.3000189,128.984375 53.6203314,130 53.6203314,132.03125 C53.6203314,134.007812 52.2570502,134.996094 49.5304877,134.996094 L49.5304877,134.996094 L47.3625189,135.007812 Z M63.1541856,143 L64.7010606,138.757812 L71.8494981,138.757812 L73.3846544,143 L75.7049669,143 L69.6229356,126.96875 L66.9276231,126.96875 L60.8338731,143 L63.1541856,143 Z M71.1580919,136.941406 L65.3690294,136.941406 L68.2752794,128.539062 L71.1580919,136.941406 Z M88.520071,143 L88.520071,137.585938 C88.520071,137.1875 88.5630398,136.902344 88.6489773,136.730469 L88.6489773,136.730469 L88.8833523,136.320312 L94.191946,127.003906 L91.7192898,127.003906 L87.488821,134.9375 L83.270071,127.003906 L80.738821,127.003906 L85.988821,136.226562 C86.270071,136.71875 86.410696,137.152344 86.410696,137.527344 L86.410696,137.527344 L86.410696,143 L88.520071,143 Z M99.8075616,143 L99.8075616,140.058594 L97.6161553,140.058594 L97.6161553,143 L99.8075616,143 Z M105.497666,146.84375 C108.146103,146.84375 109.470322,145 109.470322,141.3125 L109.470322,141.3125 L109.470322,127.003906 L107.360947,127.003906 L107.360947,140.773438 C107.360947,143.460938 106.540634,144.804688 104.900009,144.804688 L104.900009,144.804688 L104.782822,144.804688 L104.782822,146.796875 C105.032822,146.828125 105.271103,146.84375 105.497666,146.84375 Z M119.43777,143 L119.43777,136.976562 L121.769801,136.988281 C125.840114,136.988281 127.87527,135.316406 127.87527,131.972656 C127.87527,130.230469 127.347926,128.966797 126.293239,128.181641 C125.238551,127.396484 123.543239,127.003906 121.207301,127.003906 L121.207301,127.003906 L117.328395,127.003906 L117.328395,143 L119.43777,143 Z M119.43777,135.007812 L119.43777,128.984375 L121.734645,128.984375 C124.37527,128.984375 125.695582,130 125.695582,132.03125 C125.695582,134.007812 124.332301,134.996094 121.605739,134.996094 L121.605739,134.996094 L119.43777,135.007812 Z" id="BYPAY.JP" fill="#222222"></path>
                    </g>
                </g>
            </g>
        </g>
    </g>
</svg>